<mxfile host="app.diagrams.net" modified="2023-11-20T04:12:05.532Z" agent="Mozilla/5.0 (Macintosh; Intel Mac OS X 10_15_7) AppleWebKit/537.36 (KHTML, like Gecko) Chrome/119.0.0.0 Safari/537.36" etag="JwAw8jW3jKALTrPC2ovb" version="22.1.3" type="github">
  <diagram name="第 1 页" id="1bGJnwUZLRpFieNH4Pbf">
    <mxGraphModel dx="940" dy="490" grid="1" gridSize="10" guides="1" tooltips="1" connect="1" arrows="1" fold="1" page="1" pageScale="1" pageWidth="827" pageHeight="1169" math="0" shadow="0">
      <root>
        <mxCell id="0" />
        <mxCell id="1" parent="0" />
        <mxCell id="TzNub4UONT2IYfASkNJM-13" value="" style="rounded=0;whiteSpace=wrap;html=1;fillColor=none;dashed=1;dashPattern=12 12;" vertex="1" parent="1">
          <mxGeometry x="120" y="310" width="440" height="220" as="geometry" />
        </mxCell>
        <mxCell id="TzNub4UONT2IYfASkNJM-16" style="edgeStyle=orthogonalEdgeStyle;rounded=0;orthogonalLoop=1;jettySize=auto;html=1;entryX=0.5;entryY=1;entryDx=0;entryDy=0;" edge="1" parent="1" source="TzNub4UONT2IYfASkNJM-1" target="TzNub4UONT2IYfASkNJM-12">
          <mxGeometry relative="1" as="geometry" />
        </mxCell>
        <mxCell id="TzNub4UONT2IYfASkNJM-17" value="" style="edgeStyle=orthogonalEdgeStyle;rounded=0;orthogonalLoop=1;jettySize=auto;html=1;" edge="1" parent="1" source="TzNub4UONT2IYfASkNJM-1" target="TzNub4UONT2IYfASkNJM-12">
          <mxGeometry relative="1" as="geometry" />
        </mxCell>
        <mxCell id="TzNub4UONT2IYfASkNJM-18" style="edgeStyle=orthogonalEdgeStyle;rounded=0;orthogonalLoop=1;jettySize=auto;html=1;entryX=0.25;entryY=1;entryDx=0;entryDy=0;" edge="1" parent="1" source="TzNub4UONT2IYfASkNJM-1" target="TzNub4UONT2IYfASkNJM-15">
          <mxGeometry relative="1" as="geometry">
            <Array as="points">
              <mxPoint x="210" y="180" />
              <mxPoint x="313" y="180" />
            </Array>
          </mxGeometry>
        </mxCell>
        <mxCell id="TzNub4UONT2IYfASkNJM-1" value="外卖小程序" style="rounded=0;whiteSpace=wrap;html=1;fillColor=#f8cecc;strokeColor=#b85450;" vertex="1" parent="1">
          <mxGeometry x="140" y="210" width="90" height="50" as="geometry" />
        </mxCell>
        <mxCell id="TzNub4UONT2IYfASkNJM-19" style="edgeStyle=orthogonalEdgeStyle;rounded=0;orthogonalLoop=1;jettySize=auto;html=1;entryX=0.5;entryY=1;entryDx=0;entryDy=0;" edge="1" parent="1" source="TzNub4UONT2IYfASkNJM-4" target="TzNub4UONT2IYfASkNJM-15">
          <mxGeometry relative="1" as="geometry" />
        </mxCell>
        <mxCell id="TzNub4UONT2IYfASkNJM-4" value="扫码点餐小程序" style="rounded=0;whiteSpace=wrap;html=1;fillColor=#f8cecc;strokeColor=#b85450;" vertex="1" parent="1">
          <mxGeometry x="290" y="210" width="90" height="50" as="geometry" />
        </mxCell>
        <mxCell id="TzNub4UONT2IYfASkNJM-7" style="rounded=0;orthogonalLoop=1;jettySize=auto;html=1;entryX=0.5;entryY=1;entryDx=0;entryDy=0;" edge="1" parent="1" source="TzNub4UONT2IYfASkNJM-5" target="TzNub4UONT2IYfASkNJM-1">
          <mxGeometry relative="1" as="geometry" />
        </mxCell>
        <mxCell id="TzNub4UONT2IYfASkNJM-8" style="rounded=0;orthogonalLoop=1;jettySize=auto;html=1;entryX=0.5;entryY=1;entryDx=0;entryDy=0;" edge="1" parent="1" source="TzNub4UONT2IYfASkNJM-5" target="TzNub4UONT2IYfASkNJM-4">
          <mxGeometry relative="1" as="geometry" />
        </mxCell>
        <mxCell id="TzNub4UONT2IYfASkNJM-10" style="rounded=0;orthogonalLoop=1;jettySize=auto;html=1;entryX=0;entryY=0.5;entryDx=0;entryDy=0;" edge="1" parent="1" source="TzNub4UONT2IYfASkNJM-5" target="TzNub4UONT2IYfASkNJM-6">
          <mxGeometry relative="1" as="geometry" />
        </mxCell>
        <mxCell id="TzNub4UONT2IYfASkNJM-11" style="rounded=0;orthogonalLoop=1;jettySize=auto;html=1;entryX=0;entryY=0.5;entryDx=0;entryDy=0;edgeStyle=orthogonalEdgeStyle;exitX=1;exitY=0.75;exitDx=0;exitDy=0;" edge="1" parent="1" source="TzNub4UONT2IYfASkNJM-5" target="TzNub4UONT2IYfASkNJM-9">
          <mxGeometry relative="1" as="geometry" />
        </mxCell>
        <mxCell id="TzNub4UONT2IYfASkNJM-5" value="外卖小程序&lt;br&gt;服务端" style="rounded=0;whiteSpace=wrap;html=1;fillColor=#dae8fc;strokeColor=#6c8ebf;" vertex="1" parent="1">
          <mxGeometry x="190" y="370" width="90" height="50" as="geometry" />
        </mxCell>
        <mxCell id="TzNub4UONT2IYfASkNJM-6" value="商家后台&lt;br&gt;PC版" style="rounded=0;whiteSpace=wrap;html=1;fillColor=#fff2cc;strokeColor=#d6b656;" vertex="1" parent="1">
          <mxGeometry x="410" y="370" width="90" height="50" as="geometry" />
        </mxCell>
        <mxCell id="TzNub4UONT2IYfASkNJM-9" value="商家后台&lt;br&gt;手机版" style="rounded=0;whiteSpace=wrap;html=1;fillColor=#fff2cc;strokeColor=#d6b656;" vertex="1" parent="1">
          <mxGeometry x="410" y="440" width="90" height="50" as="geometry" />
        </mxCell>
        <mxCell id="TzNub4UONT2IYfASkNJM-12" value="永春药房" style="rounded=0;whiteSpace=wrap;html=1;" vertex="1" parent="1">
          <mxGeometry x="140" y="80" width="90" height="50" as="geometry" />
        </mxCell>
        <mxCell id="TzNub4UONT2IYfASkNJM-15" value="诚品咖啡" style="rounded=0;whiteSpace=wrap;html=1;" vertex="1" parent="1">
          <mxGeometry x="290" y="80" width="90" height="50" as="geometry" />
        </mxCell>
        <mxCell id="TzNub4UONT2IYfASkNJM-20" value="前后端没分离&lt;br&gt;服务端部署" style="rounded=0;whiteSpace=wrap;html=1;dashed=1;dashPattern=1 2;" vertex="1" parent="1">
          <mxGeometry x="150" y="460" width="100" height="50" as="geometry" />
        </mxCell>
      </root>
    </mxGraphModel>
  </diagram>
</mxfile>
